<?xml version="1.0" encoding="UTF-8" standalone="no"?>
<!DOCTYPE svg PUBLIC "-//W3C//DTD SVG 1.1//EN" "http://www.w3.org/Graphics/SVG/1.1/DTD/svg11.dtd">
<svg width="100%" height="100%" viewBox="0 0 1507 1289" version="1.1" xmlns="http://www.w3.org/2000/svg" xmlns:xlink="http://www.w3.org/1999/xlink" xml:space="preserve" xmlns:serif="http://www.serif.com/" style="fill-rule:evenodd;clip-rule:evenodd;stroke-linecap:square;stroke-miterlimit:1.5;">
    <g transform="matrix(1,0,0,1,-522.403,-581.459)">
        <g transform="matrix(1,0,0,1,-11.811,2.27374e-13)">
            <rect x="614.173" y="685.039" width="1322.84" height="1039.37" style="fill:rgb(254,243,224);"/>
        </g>
        <g transform="matrix(-4.81503e-05,0.830058,-1.35781,-7.87642e-05,2104.59,-90.945)">
            <rect x="1062.99" y="685.039" width="330.709" height="94.488" style="fill:white;"/>
            <path d="M1393.7,685.039L1062.99,685.039L1062.99,779.528L1393.7,779.528L1393.7,685.039ZM1388.68,776.459L1388.68,688.108L1068.01,688.108L1068.01,776.459L1388.68,776.459Z" style="fill:rgb(68,68,68);"/>
        </g>
        <g transform="matrix(1,0,0,1,-153.118,35.4331)">
            <rect x="1098" y="897.638" width="83.102" height="70.866" style="fill:white;"/>
            <path d="M1181.1,897.638L1098,897.638L1098,968.504L1181.1,968.504L1181.1,897.638ZM1102.17,901.804L1102.17,964.337L1176.94,964.337L1176.94,901.804L1102.17,901.804Z" style="fill:rgb(68,68,68);"/>
        </g>
        <g transform="matrix(1,0,0,1,-153.118,-82.6772)">
            <rect x="1098" y="897.638" width="83.102" height="70.866" style="fill:white;"/>
            <path d="M1181.1,897.638L1098,897.638L1098,968.504L1181.1,968.504L1181.1,897.638ZM1102.17,901.804L1102.17,964.337L1176.94,964.337L1176.94,901.804L1102.17,901.804Z" style="fill:rgb(68,68,68);"/>
        </g>
        <g transform="matrix(1,0,0,1,106.724,35.4331)">
            <rect x="1098" y="897.638" width="83.102" height="70.866" style="fill:white;"/>
            <path d="M1181.1,897.638L1098,897.638L1098,968.504L1181.1,968.504L1181.1,897.638ZM1102.17,901.804L1102.17,964.337L1176.94,964.337L1176.94,901.804L1102.17,901.804Z" style="fill:rgb(68,68,68);"/>
        </g>
        <g transform="matrix(1,0,0,1,106.724,-82.6772)">
            <rect x="1098" y="897.638" width="83.102" height="70.866" style="fill:white;"/>
            <path d="M1181.1,897.638L1098,897.638L1098,968.504L1181.1,968.504L1181.1,897.638ZM1102.17,901.804L1102.17,964.337L1176.94,964.337L1176.94,901.804L1102.17,901.804Z" style="fill:rgb(68,68,68);"/>
        </g>
        <rect x="1488.19" y="1110.24" width="307.087" height="61.764" style="fill:white;"/>
        <path d="M1795.28,1110.24L1488.19,1110.24L1488.19,1172L1795.28,1172L1795.28,1110.24ZM1492.36,1114.4L1492.36,1167.83L1791.11,1167.83L1791.11,1114.4L1492.36,1114.4Z" style="fill:rgb(68,68,68);"/>
        <g transform="matrix(0.712133,0,0,0.712133,476,296.331)">
            <ellipse cx="1653.54" cy="916.874" rx="118.11" ry="98.874" style="fill:white;"/>
            <path d="M1653.54,818C1718.73,818 1771.65,862.304 1771.65,916.874C1771.65,971.444 1718.73,1015.75 1653.54,1015.75C1588.36,1015.75 1535.43,971.444 1535.43,916.874C1535.43,862.304 1588.36,818 1653.54,818ZM1653.54,823.851C1715.24,823.851 1765.8,865.223 1765.8,916.874C1765.8,968.525 1715.24,1009.9 1653.54,1009.9C1591.84,1009.9 1541.28,968.525 1541.28,916.874C1541.28,865.223 1591.84,823.851 1653.54,823.851Z" style="fill:rgb(68,68,68);"/>
        </g>
        <g transform="matrix(1,0,0,1,-46.0551,-6.83071)">
            <g transform="matrix(1,0,0,1,-13,6.83071)">
                <rect x="1535.43" y="695" width="330.709" height="155.394" style="fill:white;"/>
                <path d="M1866.14,695L1535.43,695L1535.43,850.394L1866.14,850.394L1866.14,695ZM1539.6,699.167L1539.6,846.227L1861.98,846.227L1861.98,699.167L1539.6,699.167Z" style="fill:rgb(68,68,68);"/>
            </g>
            <rect x="1535.43" y="708.661" width="47.244" height="141.732" style="fill:white;"/>
            <path d="M1582.68,708.661L1535.43,708.661L1535.43,850.394L1582.68,850.394L1582.68,708.661ZM1539.6,712.828L1539.6,846.227L1578.51,846.227L1578.51,712.828L1539.6,712.828Z" style="fill:rgb(68,68,68);"/>
            <g transform="matrix(1,0,0,1,259.843,0)">
                <rect x="1535.43" y="708.661" width="47.244" height="141.732" style="fill:white;"/>
                <path d="M1582.68,708.661L1535.43,708.661L1535.43,850.394L1582.68,850.394L1582.68,708.661ZM1539.6,712.828L1539.6,846.227L1578.51,846.227L1578.51,712.828L1539.6,712.828Z" style="fill:rgb(68,68,68);"/>
            </g>
            <g transform="matrix(1.74057,0,0,1,-1250.3,0)">
                <rect x="1593" y="708.661" width="190" height="47.244" style="fill:white;"/>
                <path d="M1783,708.661L1593,708.661L1593,755.906L1783,755.906L1783,708.661ZM1595.39,712.828L1595.39,751.739L1780.61,751.739L1780.61,712.828L1595.39,712.828Z" style="fill:rgb(68,68,68);"/>
            </g>
        </g>
        <g transform="matrix(1,0,0,1.67197,-472.441,-1154.28)">
            <rect x="1842.52" y="1433" width="94.488" height="282" style="fill:white;"/>
            <path d="M1937.01,1433L1842.52,1433L1842.52,1715L1937.01,1715L1937.01,1433ZM1846.69,1435.49L1846.69,1712.51L1932.84,1712.51L1932.84,1435.49L1846.69,1435.49Z" style="fill:rgb(68,68,68);"/>
        </g>
        <g transform="matrix(-0.0016226,-0.999999,-0.999999,0.0016226,3252.48,3080.49)">
            <rect x="1370.08" y="1417.32" width="377.953" height="263.677" style="fill:white;"/>
            <path d="M1748.03,1417.32L1370.08,1417.32L1370.08,1681L1748.03,1681L1748.03,1417.32ZM1743.87,1676.83L1374.25,1676.83L1374.25,1421.49L1743.87,1421.49L1743.87,1676.83Z" style="fill:rgb(68,68,68);"/>
            <rect x="1384" y="1440.94" width="68" height="94.488" style="fill:white;"/>
            <path d="M1452,1440.94L1384,1440.94L1384,1535.43L1452,1535.43L1452,1440.94ZM1447.83,1531.27L1388.17,1531.27L1388.17,1445.11L1447.83,1445.11L1447.83,1531.27Z" style="fill:rgb(68,68,68);"/>
            <g transform="matrix(1,0,0,1,-0.677165,118.11)">
                <rect x="1384" y="1440.94" width="68" height="94.488" style="fill:white;"/>
                <path d="M1452,1440.94L1384,1440.94L1384,1535.43L1452,1535.43L1452,1440.94ZM1447.83,1531.27L1388.17,1531.27L1388.17,1445.11L1447.83,1445.11L1447.83,1531.27Z" style="fill:rgb(68,68,68);"/>
            </g>
            <rect x="1440.94" y="1433" width="292.055" height="233" style="fill:white;"/>
            <path d="M1733,1433L1440.94,1433L1440.94,1666L1733,1666L1733,1433ZM1728.83,1661.83L1445.11,1661.83L1445.11,1437.17L1728.83,1437.17L1728.83,1661.83Z" style="fill:rgb(68,68,68);"/>
        </g>
        <g>
            <g transform="matrix(1.20833,0,0,1.20833,-225.591,-282.972)">
                <path d="M1022.84,1323.15L1022.84,1322.84L1105.51,1322.84L1105.51,1393.7L1022.84,1393.7L1022.84,1393.39C1005.51,1391.08 992.126,1376.22 992.126,1358.27C992.126,1340.31 1005.51,1325.46 1022.84,1323.15Z" style="fill:white;"/>
                <path d="M1022.84,1323.15L1022.84,1322.84L1105.51,1322.84L1105.51,1393.7L1022.84,1393.7L1022.84,1393.39C1005.51,1391.08 992.126,1376.22 992.126,1358.27C992.126,1340.31 1005.51,1325.46 1022.84,1323.15ZM1025.41,1390.25L1102.06,1390.25L1102.06,1326.28L1025.41,1326.28L1023.29,1326.57C1007.65,1328.65 995.574,1342.06 995.574,1358.27C995.574,1374.47 1007.65,1387.88 1023.29,1389.97L1025.41,1390.25Z" style="fill:rgb(68,68,68);"/>
            </g>
            <g transform="matrix(0.805556,0,0,0.805556,196.85,264.108)">
                <path d="M1022.84,1323.15L1022.84,1322.84L1105.51,1322.84L1105.51,1393.7L1022.84,1393.7L1022.84,1393.39C1005.51,1391.08 992.126,1376.22 992.126,1358.27C992.126,1340.31 1005.51,1325.46 1022.84,1323.15Z" style="fill:white;"/>
                <path d="M1022.84,1323.15L1022.84,1322.84L1105.51,1322.84L1105.51,1393.7L1022.84,1393.7L1022.84,1393.39C1005.51,1391.08 992.126,1376.22 992.126,1358.27C992.126,1340.31 1005.51,1325.46 1022.84,1323.15ZM1025.52,1388.53L1100.34,1388.53L1100.34,1328.01L1025.52,1328.01L1023.52,1328.27C1008.72,1330.25 997.298,1342.94 997.298,1358.27C997.298,1373.6 1008.72,1386.29 1023.52,1388.26L1025.52,1388.53Z" style="fill:rgb(68,68,68);"/>
            </g>
        </g>
        <g>
            <rect x="614.173" y="1133.86" width="141.732" height="307.087" style="fill:white;"/>
            <path d="M755.906,1133.86L755.906,1440.94L614.173,1440.94L614.173,1133.86L755.906,1133.86ZM618.34,1138.03L618.34,1436.78L751.739,1436.78L751.739,1138.03L618.34,1138.03Z" style="fill:rgb(68,68,68);"/>
            <rect x="614.173" y="1133.86" width="141.732" height="47.244" style="fill:white;"/>
            <path d="M755.906,1133.86L614.173,1133.86L614.173,1181.1L755.906,1181.1L755.906,1133.86ZM618.34,1138.03L618.34,1176.94L751.739,1176.94L751.739,1138.03L618.34,1138.03Z" style="fill:rgb(68,68,68);"/>
        </g>
        <g>
            <rect x="767.717" y="1133.86" width="165.354" height="82.677" style="fill:white;"/>
            <path d="M933.071,1133.86L767.717,1133.86L767.717,1216.54L933.071,1216.54L933.071,1133.86ZM771.883,1138.03L771.883,1212.37L928.904,1212.37L928.904,1138.03L771.883,1138.03Z" style="fill:rgb(68,68,68);"/>
            <g transform="matrix(1,0,0,1,0,-11.811)">
                <ellipse cx="850.394" cy="1187.01" rx="59.055" ry="29.528" style="fill:white;"/>
                <path d="M850.394,1157.48C882.987,1157.48 909.449,1170.71 909.449,1187.01C909.449,1203.31 882.987,1216.54 850.394,1216.54C817.8,1216.54 791.339,1203.31 791.339,1187.01C791.339,1170.71 817.8,1157.48 850.394,1157.48ZM850.394,1161.65C868.974,1161.65 885.487,1166.05 895.701,1173.02C901.535,1177 905.282,1181.7 905.282,1187.01C905.282,1192.32 901.535,1197.02 895.701,1201C885.487,1207.96 868.974,1212.37 850.394,1212.37C831.813,1212.37 815.3,1207.96 805.087,1201C799.252,1197.02 795.505,1192.32 795.505,1187.01C795.505,1181.7 799.252,1177 805.087,1173.02C815.3,1166.05 831.813,1161.65 850.394,1161.65Z" style="fill:rgb(68,68,68);"/>
            </g>
        </g>
        <g id="Grundriss" transform="matrix(1,0,0,1,-11.811,2.27374e-13)">
            <g>
                <g transform="matrix(1.19548,0,0,0.888889,25.7559,554.304)">
                    <path d="M498.581,1004.21L634.758,1004.21L634.758,1074.53L446.301,1074.53L446.301,909.165L498.581,909.165L498.581,1004.21Z" style="fill:#cf5e5e;"/>
                </g>
                <g transform="matrix(1.19548,0,0,0.888889,25.7559,554.304)">
                    <path d="M498.581,649.329L498.581,766.879L446.301,766.879L446.301,579.017L971.022,579.017L971.022,1074.71L754.645,1073.22L754.912,1002.91L918.742,1004.03L918.742,649.329L498.581,649.329Z" style="fill:#cf5e5e;"/>
                </g>
                <path d="M559.301,1456.94L559.301,1779.28L621.801,1779.28L621.801,1456.94L559.301,1456.94Z" style="fill:#cf5e5e;"/>
                <g transform="matrix(0.818182,0,0,1,107.373,0)">
                    <path d="M552.357,1779.28L888.588,1779.28L888.588,1716.78L552.357,1716.78L552.357,1779.28Z" style="fill:#cf5e5e;"/>
                </g>
                <g transform="matrix(0.461538,0,0,1,559.661,0)">
                    <path d="M971.662,1779.28L1721.25,1779.28L1721.25,1716.78L971.662,1716.78L971.662,1779.28Z" style="fill:#cf5e5e;"/>
                </g>
                <g transform="matrix(1,0,0,1.11143,0,-71.2017)">
                    <path d="M621.801,667.117L621.801,1091.11L559.301,1091.11L559.301,610.883L787.156,610.883L787.156,667.117L621.801,667.117Z" style="fill:#cf5e5e;"/>
                </g>
                <path d="M1055.36,670.25L1401.33,670.25L1401.33,607.75L1055.36,607.75L1055.36,670.25Z" style="fill:#cf5e5e;"/>
                <g transform="matrix(0.728955,0,0,1.00109,209.976,-1.89886)">
                    <path d="M2391.07,670.216L2115.68,670.216L2115.68,607.784L2476.93,607.784C2476.93,607.784 2475.64,1322.88 2475.64,1322.95L2474.62,1449.08L2388.88,1448.71L2389.13,1417.5C2389.13,1417.5 2389.9,1322.65 2389.9,1322.79L2391.07,670.216Z" style="fill:#cf5e5e;"/>
                </g>
                <g transform="matrix(0.728955,0,0,1.27778,209.976,-485.564)">
                    <path d="M1601.92,1723.58L2474.87,1723.58L2474.87,1772.49L1516.19,1772.49L1516.19,1298.35L2196.66,1298.87L2196.54,1347.79L1601.92,1347.32L1601.92,1723.58Z" style="fill:#cf5e5e;"/>
                </g>
            </g>
            <g>
                <g transform="matrix(1.1994,0,0,1.7341,-179.042,-1075.14)">
                    <rect x="803.15" y="1464.57" width="119.85" height="13.622" style="fill:white;"/>
                    <path d="M923,1464.57L803.15,1464.57L803.15,1478.19L923,1478.19L923,1464.57ZM806.624,1466.97L806.624,1475.79L919.526,1475.79L919.526,1466.97L806.624,1466.97Z" style="fill:rgb(68,68,68);"/>
                </g>
                <g transform="matrix(0.981818,0,0,1,16.6213,1.45519e-11)">
                    <path d="M784.252,1488.19L784.252,1562C784.252,1562 867.066,1565.72 925,1488.19" style="fill:none;stroke:rgb(68,68,68);stroke-width:4.2px;"/>
                </g>
            </g>
            <g transform="matrix(-1,0,0,1,2735.09,-271.654)">
                <g transform="matrix(1.1994,0,0,1.7341,-179.042,-1075.14)">
                    <rect x="803.15" y="1464.57" width="119.85" height="13.622" style="fill:white;"/>
                    <path d="M923,1464.57L803.15,1464.57L803.15,1478.19L923,1478.19L923,1464.57ZM919.526,1466.97L919.526,1475.79L806.624,1475.79L806.624,1466.97L919.526,1466.97Z" style="fill:rgb(68,68,68);"/>
                </g>
                <g transform="matrix(0.981818,0,0,1,16.6213,1.45519e-11)">
                    <path d="M784.252,1488.19L784.252,1562C784.252,1562 867.066,1565.72 925,1488.19" style="fill:none;stroke:rgb(68,68,68);stroke-width:4.2px;"/>
                </g>
            </g>
            <g transform="matrix(-1.2087,0,0,1.44839,1956.24,-396.285)">
                <g transform="matrix(1.1994,0,0,1.7341,-179.042,-1075.14)">
                    <rect x="803.15" y="1464.57" width="119.85" height="13.622" style="fill:white;"/>
                    <path d="M923,1464.57L803.15,1464.57L803.15,1478.19L923,1478.19L923,1464.57ZM920.126,1466.23L920.126,1476.53L806.024,1476.53L806.024,1466.23L920.126,1466.23Z" style="fill:rgb(68,68,68);"/>
                </g>
                <g transform="matrix(0.981818,0,0,1,16.6213,1.45519e-11)">
                    <path d="M784.252,1488.19L784.252,1562C784.252,1562 867.066,1565.72 925,1488.19" style="fill:none;stroke:rgb(68,68,68);stroke-width:3.15px;"/>
                </g>
            </g>
        </g>
        <path d="M720,968.504L944.882,968.504L891.882,968.504L891.882,1072L614.173,1072L614.173,673.769L720,673.769L720,968.504Z" style="fill:white;"/>
        <path d="M720,968.504L944.882,968.504L891.882,968.504L891.882,1072L614.173,1072L614.173,673.769L720,673.769L720,968.504ZM715.833,677.935L618.34,677.935L618.34,1067.83L887.715,1067.83L887.715,972.671L715.833,972.671L715.833,677.935Z" style="fill:rgb(68,68,68);"/>
        <g transform="matrix(-0.000563326,0.998879,-1,-0.000563958,2609.29,674.745)">
            <g transform="matrix(1.03742,0,0,1,-34.1732,0)">
                <rect x="779.528" y="614.173" width="259.843" height="47.244" style="fill:white;"/>
                <path d="M1039.37,614.173L779.528,614.173L779.528,661.417L1039.37,661.417L1039.37,614.173ZM1035.35,657.251L1035.35,618.34L783.548,618.34L783.548,657.251L1035.35,657.251Z" style="fill:rgb(68,68,68);"/>
            </g>
            <g transform="matrix(0.99999,0.00439,-0.00439,0.99999,2.85276,-1.62403)">
                <path d="M777.165,648.425L1041.73,647.244" style="fill:none;stroke:rgb(68,68,68);stroke-width:4.17px;"/>
            </g>
        </g>
        <g>
            <g transform="matrix(1.03742,0,0,1,-34.1732,0)">
                <rect x="779.528" y="614.173" width="259.843" height="47.244" style="fill:white;"/>
                <path d="M1039.37,614.173L779.528,614.173L779.528,661.417L1039.37,661.417L1039.37,614.173ZM783.544,618.34L783.544,657.251L1035.35,657.251L1035.35,618.34L783.544,618.34Z" style="fill:rgb(68,68,68);"/>
            </g>
            <g transform="matrix(0.99999,0.00439,-0.00439,0.99999,2.85276,-1.62403)">
                <path d="M777.165,648.425L1041.73,647.244" style="fill:none;stroke:rgb(68,68,68);stroke-width:4.17px;"/>
            </g>
        </g>
        <g>
            <g transform="matrix(0.993578,0,0,1,4.22625,0)">
                <rect x="1393.7" y="614.173" width="354.331" height="47.244" style="fill:white;"/>
                <path d="M1748.03,614.173L1393.7,614.173L1393.7,661.417L1748.03,661.417L1748.03,614.173ZM1397.89,618.34L1397.89,657.251L1743.84,657.251L1743.84,618.34L1397.89,618.34Z" style="fill:rgb(68,68,68);"/>
            </g>
            <g transform="matrix(0.999989,-0.00477059,0.00477059,0.999989,-3.09536,5.09445)">
                <path d="M1391,652L1738.58,653.15" style="fill:none;stroke:rgb(68,68,68);stroke-width:4.17px;"/>
            </g>
        </g>
        <g transform="matrix(-0.000168838,-0.468889,1,-0.00036008,-342.385,1661.99)">
            <g transform="matrix(1.03742,0,0,1,-170.906,283.465)">
                <rect x="779.528" y="614.173" width="259.843" height="47.244" style="fill:white;"/>
                <path d="M1039.37,614.173L779.528,614.173L779.528,661.417L1039.37,661.417L1039.37,614.173ZM1030.8,618.34L788.093,618.34L788.093,657.251L1030.8,657.251L1030.8,618.34Z" style="fill:rgb(68,68,68);"/>
            </g>
            <g transform="matrix(0.980627,0.00365909,-0.0169713,0.999968,-107.863,282.52)">
                <path d="M777.165,648.425L1041.73,647.244" style="fill:none;stroke:rgb(68,68,68);stroke-width:5.35px;"/>
            </g>
        </g>
    </g>
</svg>
