<?xml version="1.0" encoding="UTF-8" standalone="no"?>
<!DOCTYPE svg PUBLIC "-//W3C//DTD SVG 1.1//EN" "http://www.w3.org/Graphics/SVG/1.1/DTD/svg11.dtd">
<svg width="100%" height="100%" viewBox="0 0 511 466" version="1.1" xmlns="http://www.w3.org/2000/svg" xmlns:xlink="http://www.w3.org/1999/xlink" xml:space="preserve" xmlns:serif="http://www.serif.com/" style="fill-rule:evenodd;clip-rule:evenodd;stroke-linecap:round;stroke-linejoin:round;stroke-miterlimit:1.5;">
    <g transform="matrix(1,0,0,1,-1.99316,-23.8066)">
        <path d="M180,329L354.952,330" style="fill:none;stroke:rgb(207,94,94);stroke-width:12px;"/>
        <path d="M355,304C355,304 354.892,331.134 355,332C355.422,335.371 351.061,349.398 390,374.782C419.17,350.291 420,346.49 420,330L420,304.394" style="fill:none;stroke:rgb(207,94,94);stroke-width:12px;"/>
        <path d="M428.839,301.061L465,301.061C465,301.061 505,305.913 505,261.061L505,155" style="fill:none;stroke:rgb(207,94,94);stroke-width:12px;"/>
        <path d="M273.226,387.947L313.481,387.947L313.481,480L495.728,480L495.728,380C495.728,380 496.611,329.043 444.771,329.043C392.931,329.043 421.839,329.043 421.839,329.043" style="fill:none;stroke:rgb(207,94,94);stroke-width:12px;"/>
        <g transform="matrix(1,0,0,1,0,-1)">
            <path d="M60,333.501C60,333.501 69.25,330 97,330" style="fill:none;stroke:rgb(207,94,94);stroke-width:12px;"/>
        </g>
        <path d="M60,483L60,426" style="fill:none;stroke:rgb(207,94,94);stroke-width:12px;"/>
        <path d="M206,483.01L205.571,425.26" style="fill:none;stroke:rgb(207,94,94);stroke-width:12px;"/>
        <path d="M24.491,483.01L240,483.009L240,387C240,387 244.849,328 166,328" style="fill:none;stroke:rgb(207,94,94);stroke-width:12px;"/>
        <path d="M25,482.57L25,397.645L43.111,397.645C43.111,397.645 60,396.828 60,379L60,330C60,330 59.426,320 50,320L19,320C19,320 9,319.164 9,330C9,340.836 8,380 8,380C8,380 7.13,397.645 25,397.645" style="fill:none;stroke:rgb(207,94,94);stroke-width:12px;"/>
        <path d="M26.535,180C26.535,180 -13.313,65.436 56.477,65.436C67.515,54.707 86.322,27.249 100,30C113.678,32.751 205.064,53.926 205.064,53.926C205.064,53.926 238.512,63.757 264.345,40C267.198,42.628 273.556,56.615 264.345,73.557" style="fill:none;stroke:rgb(207,94,94);stroke-width:12px;"/>
        <path d="M236.127,180L256,110" style="fill:none;stroke:rgb(207,94,94);stroke-width:12px;"/>
        <path d="M101,302C101,302 81.396,373.671 130,373.671C178.604,373.671 164,303 164,303" style="fill:none;stroke:rgb(207,94,94);stroke-width:12px;"/>
        <path d="M80,120C80,120 128.411,170.599 215,150C215.633,178.403 215,175 215,175C215,175 242.688,169.708 242.688,202.688C242.688,235.668 220,230 220,230C220,230 202.381,307 140,307C77.619,307 46,269.069 46,229C16.252,229.14 20,210.896 20,200C20,189.104 21.065,177 46,177C46.065,177.196 46.181,147.69 46.181,147.69C46.181,147.69 81.491,143.077 80,120Z" style="fill:none;stroke:rgb(207,94,94);stroke-width:12px;"/>
        <path d="M300,174.884C300,174.884 274.884,174.966 274.884,200C274.884,225.034 286.22,225.116 300,225.116C299.853,240.542 328.625,311 385.884,311C443.143,311 478.423,260.396 473.884,223C494.425,224.198 499,216.096 499,197.884C499,179.672 489.596,176.884 478,176.884C477.725,171.042 481.177,91.579 461,91C446.274,104.085 384.04,144.931 303,132C306.377,174.319 303.303,172.428 300,174.884Z" style="fill:none;stroke:rgb(207,94,94);stroke-width:12px;"/>
        <path d="M504.623,120C504.623,120 526.048,55.377 440,55.377C439.925,39.413 425.998,30 414.623,30C403.248,30 350,29.807 350,29.807C350,29.807 273.198,28.68 272.017,107.791C270.835,186.902 272.017,270 272.017,270C272.017,270 272.074,302 304.017,302L350,302" style="fill:none;stroke:rgb(207,94,94);stroke-width:12px;"/>
        <ellipse cx="90.197" cy="181.338" rx="6.021" ry="8.662" style="fill:none;stroke:rgb(207,94,94);stroke-width:12px;"/>
        <g transform="matrix(1,0,0,1,85.8241,-0.613517)">
            <ellipse cx="90.197" cy="181.338" rx="6.021" ry="8.662" style="fill:none;stroke:rgb(207,94,94);stroke-width:12px;"/>
        </g>
        <g transform="matrix(1,0,0,1,255.824,2.84217e-14)">
            <ellipse cx="90.197" cy="181.338" rx="6.021" ry="8.662" style="fill:none;stroke:rgb(207,94,94);stroke-width:12px;"/>
        </g>
        <g transform="matrix(1,0,0,1,341.648,5.68434e-14)">
            <ellipse cx="90.197" cy="181.338" rx="6.021" ry="8.662" style="fill:none;stroke:rgb(207,94,94);stroke-width:12px;"/>
        </g>
        <g transform="matrix(0.971429,0,0,1,9.57141,-11.8928)">
            <path d="M90,240L160,240C160,240 155.466,270 125,270C94.534,270 90,240 90,240Z" style="fill:none;stroke:rgb(207,94,94);stroke-width:12.17px;"/>
        </g>
        <g transform="matrix(0.971429,0,0,1,266.047,-15)">
            <path d="M90,240L160,240C160,240 155.466,270 125,270C94.534,270 90,240 90,240Z" style="fill:none;stroke:rgb(207,94,94);stroke-width:12.17px;"/>
        </g>
    </g>
</svg>
