<?xml version="1.0" encoding="UTF-8" standalone="no"?>
<!DOCTYPE svg PUBLIC "-//W3C//DTD SVG 1.1//EN" "http://www.w3.org/Graphics/SVG/1.1/DTD/svg11.dtd">
<svg width="100%" height="100%" viewBox="0 0 108 62" version="1.1" xmlns="http://www.w3.org/2000/svg" xmlns:xlink="http://www.w3.org/1999/xlink" xml:space="preserve" xmlns:serif="http://www.serif.com/" style="fill-rule:evenodd;clip-rule:evenodd;stroke-linecap:round;stroke-linejoin:round;stroke-miterlimit:1.5;">
    <g transform="matrix(1,0,0,1,-874.826,-577.75)">
        <g transform="matrix(1,0,0,1,161.578,236)">
            <g transform="matrix(1,0,0,1,-3.96976,0.718976)">
                <path d="M717.218,359.563L719.938,359.563L721.746,366.827L721.778,366.827L724.146,359.563L726.466,359.563L728.818,367.019L728.85,367.019L730.754,359.563L733.282,359.563L729.97,370.891L727.746,370.891L725.25,363.051L725.218,363.051L722.722,370.891L720.578,370.891L717.218,359.563Z" style="fill:rgb(182,102,102);fill-rule:nonzero;"/>
            </g>
            <g transform="matrix(1,0,0,1.25202,-3.96976,-93.112)">
                <path d="M733.794,365.227C733.794,364.32 733.946,363.499 734.25,362.763C734.554,362.027 734.978,361.4 735.522,360.883C736.066,360.365 736.711,359.968 737.458,359.691C738.204,359.413 739.02,359.275 739.906,359.275C740.791,359.275 741.607,359.413 742.354,359.691C743.1,359.968 743.746,360.365 744.29,360.883C744.834,361.4 745.258,362.027 745.562,362.763C745.866,363.499 746.018,364.32 746.018,365.227C746.018,366.133 745.866,366.955 745.562,367.691C745.258,368.427 744.834,369.053 744.29,369.571C743.746,370.088 743.1,370.485 742.354,370.763C741.607,371.04 740.791,371.179 739.906,371.179C739.02,371.179 738.204,371.04 737.458,370.763C736.711,370.485 736.066,370.088 735.522,369.571C734.978,369.053 734.554,368.427 734.25,367.691C733.946,366.955 733.794,366.133 733.794,365.227ZM736.386,365.227C736.386,365.76 736.468,366.248 736.634,366.691C736.799,367.133 737.036,367.517 737.346,367.843C737.655,368.168 738.026,368.421 738.458,368.603C738.89,368.784 739.372,368.875 739.906,368.875C740.439,368.875 740.922,368.784 741.354,368.603C741.786,368.421 742.156,368.168 742.466,367.843C742.775,367.517 743.012,367.133 743.178,366.691C743.343,366.248 743.426,365.76 743.426,365.227C743.426,364.704 743.343,364.219 743.178,363.771C743.012,363.323 742.775,362.936 742.466,362.611C742.156,362.285 741.786,362.032 741.354,361.851C740.922,361.669 740.439,361.579 739.906,361.579C739.372,361.579 738.89,361.669 738.458,361.851C738.026,362.032 737.655,362.285 737.346,362.611C737.036,362.936 736.799,363.323 736.634,363.771C736.468,364.219 736.386,364.704 736.386,365.227Z" style="fill:rgb(182,102,102);fill-rule:nonzero;"/>
            </g>
            <g transform="matrix(1,0,0,1,-3.96976,0.718976)">
                <path d="M747.714,359.563L750.21,359.563L750.21,363.787L755.058,363.787L755.058,359.563L757.554,359.563L757.554,370.891L755.058,370.891L755.058,365.995L750.21,365.995L750.21,370.891L747.714,370.891L747.714,359.563Z" style="fill:rgb(182,102,102);fill-rule:nonzero;"/>
            </g>
            <g transform="matrix(1,0,0,1,-3.96976,0.718976)">
                <path d="M759.858,359.563L763.25,359.563L768.066,367.435L768.098,367.435L768.098,359.563L770.594,359.563L770.594,370.891L767.33,370.891L762.386,362.827L762.354,362.827L762.354,370.891L759.858,370.891L759.858,359.563Z" style="fill:rgb(182,102,102);fill-rule:nonzero;"/>
            </g>
            <g transform="matrix(1,0,0,1,-0.663408,-2)">
                <g transform="matrix(1,0,0,1,4.07441,30.4373)">
                    <path d="M772.994,359.563L775.49,359.563L775.49,368.587L780.114,368.587L780.114,370.891L772.994,370.891L772.994,359.563Z" style="fill:rgb(182,102,102);fill-rule:nonzero;"/>
                </g>
                <g transform="matrix(1,0,0,1.28306,4.07441,-71.3397)">
                    <path d="M791.042,366.523C791.042,367.195 790.94,367.813 790.738,368.379C790.535,368.944 790.234,369.435 789.834,369.851C789.434,370.267 788.935,370.592 788.338,370.827C787.74,371.061 787.052,371.179 786.274,371.179C785.484,371.179 784.791,371.061 784.194,370.827C783.596,370.592 783.098,370.267 782.698,369.851C782.298,369.435 781.996,368.944 781.794,368.379C781.591,367.813 781.49,367.195 781.49,366.523L781.49,359.563L783.986,359.563L783.986,366.427C783.986,366.779 784.042,367.104 784.154,367.403C784.266,367.701 784.423,367.96 784.626,368.179C784.828,368.397 785.071,368.568 785.354,368.691C785.636,368.813 785.943,368.875 786.274,368.875C786.604,368.875 786.908,368.813 787.186,368.691C787.463,368.568 787.703,368.397 787.906,368.179C788.108,367.96 788.266,367.701 788.378,367.403C788.49,367.104 788.546,366.779 788.546,366.427L788.546,359.563L791.042,359.563L791.042,366.523Z" style="fill:rgb(182,102,102);fill-rule:nonzero;"/>
                </g>
                <g transform="matrix(1,0,0,1,4.07441,30.7253)">
                    <path d="M798.946,362.331C798.743,362.075 798.468,361.885 798.122,361.763C797.775,361.64 797.447,361.579 797.138,361.579C796.956,361.579 796.77,361.6 796.578,361.643C796.386,361.685 796.204,361.752 796.034,361.843C795.863,361.933 795.724,362.053 795.618,362.203C795.511,362.352 795.458,362.533 795.458,362.747C795.458,363.088 795.586,363.349 795.842,363.531C796.098,363.712 796.42,363.867 796.81,363.995C797.199,364.123 797.618,364.251 798.066,364.379C798.514,364.507 798.932,364.688 799.322,364.923C799.711,365.157 800.034,365.472 800.29,365.867C800.546,366.261 800.674,366.789 800.674,367.451C800.674,368.08 800.556,368.629 800.322,369.099C800.087,369.568 799.77,369.957 799.37,370.267C798.97,370.576 798.506,370.805 797.978,370.955C797.45,371.104 796.892,371.179 796.306,371.179C795.57,371.179 794.887,371.067 794.258,370.843C793.628,370.619 793.042,370.256 792.498,369.755L794.274,367.803C794.53,368.144 794.852,368.408 795.242,368.595C795.631,368.781 796.034,368.875 796.45,368.875C796.652,368.875 796.858,368.851 797.066,368.803C797.274,368.755 797.46,368.683 797.626,368.587C797.791,368.491 797.924,368.368 798.026,368.219C798.127,368.069 798.178,367.893 798.178,367.691C798.178,367.349 798.047,367.08 797.786,366.883C797.524,366.685 797.196,366.517 796.802,366.379C796.407,366.24 795.98,366.101 795.522,365.963C795.063,365.824 794.636,365.637 794.242,365.403C793.847,365.168 793.519,364.859 793.258,364.475C792.996,364.091 792.866,363.584 792.866,362.955C792.866,362.347 792.986,361.813 793.226,361.355C793.466,360.896 793.786,360.512 794.186,360.203C794.586,359.893 795.047,359.661 795.57,359.507C796.092,359.352 796.631,359.275 797.186,359.275C797.826,359.275 798.444,359.365 799.042,359.547C799.639,359.728 800.178,360.032 800.658,360.459L798.946,362.331Z" style="fill:rgb(182,102,102);fill-rule:nonzero;"/>
                </g>
                <g transform="matrix(1,0,0,1,4.07441,30.4373)">
                    <path d="M804.722,361.771L801.49,361.771L801.49,359.563L810.45,359.563L810.45,361.771L807.218,361.771L807.218,370.891L804.722,370.891L804.722,361.771Z" style="fill:rgb(182,102,102);fill-rule:nonzero;"/>
                </g>
            </g>
        </g>
        <g transform="matrix(1.15602,0,0,0.701178,41.049,347.32)">
            <g transform="matrix(1.4342,0,0,1.4342,-297.914,-135.707)">
                <path d="M746.122,356.983L746,340L760,326" style="fill:none;stroke:rgb(182,102,102);stroke-width:3.28px;"/>
            </g>
            <g transform="matrix(-1.4342,0,0,1.4342,1882.07,-135.707)">
                <path d="M746,354L746,340L760,326" style="fill:none;stroke:rgb(182,102,102);stroke-width:3.28px;"/>
            </g>
        </g>
        <g transform="matrix(0.911538,0,0,0.462172,232.387,400.55)">
            <path d="M709.775,473C709.775,473 726.012,459.467 740.832,460C755.652,460.533 761.116,470.004 786,471C810.884,471.996 816,460 816,460" style="fill:none;stroke:rgb(182,102,102);stroke-width:6.23px;"/>
        </g>
        <g transform="matrix(1,0,0,1,21.5979,138.35)">
            <path d="M944.776,469.15L944.544,460L950.776,460L950.776,469L944.776,469.15Z" style="fill:none;stroke:rgb(182,102,102);stroke-width:4.5px;"/>
        </g>
        <g transform="matrix(1,0,0,1,10.3739,132.1)">
            <path d="M933,473L933,467.65L940,467.65L940,474" style="fill:none;stroke:rgb(182,102,102);stroke-width:4.5px;"/>
        </g>
    </g>
</svg>
