<?xml version="1.0" encoding="UTF-8" standalone="no"?>
<!DOCTYPE svg PUBLIC "-//W3C//DTD SVG 1.1//EN" "http://www.w3.org/Graphics/SVG/1.1/DTD/svg11.dtd">
<svg width="100%" height="100%" viewBox="0 0 1626 1625" version="1.1" xmlns="http://www.w3.org/2000/svg" xmlns:xlink="http://www.w3.org/1999/xlink" xml:space="preserve" xmlns:serif="http://www.serif.com/" style="fill-rule:evenodd;clip-rule:evenodd;stroke-linejoin:round;stroke-miterlimit:2;">
    <g transform="matrix(1,0,0,1,-416.104,-179.884)">
        <g transform="matrix(1.07627,0,0,1.38636,-141.333,-666.249)">
            <rect x="614.173" y="685.039" width="1322.84" height="1039.37" style="fill:rgb(254,243,224);"/>
        </g>
        <g transform="matrix(1.83009,0.000106161,-0.000115995,1.99963,-858.668,-897.496)">
            <rect x="1062.99" y="685.039" width="330.709" height="94.488" style="fill:white;"/>
            <path d="M1393.7,685.039L1062.99,685.039L1062.99,779.528L1393.7,779.528L1393.7,685.039ZM1065.27,777.444L1391.42,777.444L1391.42,687.123L1065.27,687.123L1065.27,777.444Z" style="fill:rgb(68,68,68);"/>
        </g>
        <g transform="matrix(-2.73367,0.000158576,6.5658e-05,1.13187,4849.24,-504.593)">
            <rect x="1062.99" y="685.039" width="330.709" height="94.488" style="fill:white;"/>
            <path d="M1393.7,685.039L1062.99,685.039L1062.99,779.528L1393.7,779.528L1393.7,685.039ZM1392.18,688.721L1392.18,775.846L1064.52,775.846L1064.52,688.721L1392.18,688.721Z" style="fill:rgb(68,68,68);"/>
        </g>
        <g transform="matrix(1,0,0,1,177.591,-188.976)">
            <rect x="1098" y="897.638" width="83.102" height="70.866" style="fill:white;"/>
            <path d="M1181.1,897.638L1098,897.638L1098,968.504L1181.1,968.504L1181.1,897.638ZM1102.17,901.804L1102.17,964.337L1176.94,964.337L1176.94,901.804L1102.17,901.804Z" style="fill:rgb(68,68,68);"/>
        </g>
        <g transform="matrix(1,0,0,1,24.4724,-188.976)">
            <rect x="1098" y="897.638" width="83.102" height="70.866" style="fill:white;"/>
            <path d="M1181.1,897.638L1098,897.638L1098,968.504L1181.1,968.504L1181.1,897.638ZM1102.17,901.804L1102.17,964.337L1176.94,964.337L1176.94,901.804L1102.17,901.804Z" style="fill:rgb(68,68,68);"/>
        </g>
        <g transform="matrix(1,0,0,1,330.709,-188.976)">
            <rect x="1098" y="897.638" width="83.102" height="70.866" style="fill:white;"/>
            <path d="M1181.1,897.638L1098,897.638L1098,968.504L1181.1,968.504L1181.1,897.638ZM1102.17,901.804L1102.17,964.337L1176.94,964.337L1176.94,901.804L1102.17,901.804Z" style="fill:rgb(68,68,68);"/>
        </g>
        <g transform="matrix(1,0,0,1,483.827,-188.976)">
            <rect x="1098" y="897.638" width="83.102" height="70.866" style="fill:white;"/>
            <path d="M1181.1,897.638L1098,897.638L1098,968.504L1181.1,968.504L1181.1,897.638ZM1102.17,901.804L1102.17,964.337L1176.94,964.337L1176.94,901.804L1102.17,901.804Z" style="fill:rgb(68,68,68);"/>
        </g>
        <g transform="matrix(2.22882,0,0,1,-2541.54,543.307)">
            <rect x="1488.19" y="1110.24" width="307.087" height="61.764" style="fill:white;"/>
            <path d="M1795.28,1110.24L1488.19,1110.24L1488.19,1172L1795.28,1172L1795.28,1110.24ZM1490.06,1114.4L1490.06,1167.83L1793.41,1167.83L1793.41,1114.4L1490.06,1114.4Z" style="fill:rgb(68,68,68);"/>
        </g>
        <g transform="matrix(5.88176e-17,0.960564,-1.52983,9.36752e-17,3659.1,-9.1702)">
            <rect x="1488.19" y="1110.24" width="307.087" height="61.764" style="fill:white;"/>
            <path d="M1795.28,1110.24L1488.19,1110.24L1488.19,1172L1795.28,1172L1795.28,1110.24ZM1492.53,1169.28L1790.94,1169.28L1790.94,1112.96L1492.53,1112.96L1492.53,1169.28Z" style="fill:rgb(68,68,68);"/>
        </g>
        <g transform="matrix(5.88176e-17,0.960564,-1.52983,9.36752e-17,3659.1,-448.887)">
            <rect x="1488.19" y="1110.24" width="307.087" height="61.764" style="fill:white;"/>
            <path d="M1795.28,1110.24L1488.19,1110.24L1488.19,1172L1795.28,1172L1795.28,1110.24ZM1492.53,1169.28L1790.94,1169.28L1790.94,1112.96L1492.53,1112.96L1492.53,1169.28Z" style="fill:rgb(68,68,68);"/>
        </g>
        <g transform="matrix(1.77568e-16,2.89991,-1.52983,9.36752e-17,2289.03,-3930.54)">
            <rect x="1488.19" y="1110.24" width="307.087" height="61.764" style="fill:white;"/>
            <path d="M1795.28,1110.24L1488.19,1110.24L1488.19,1172L1795.28,1172L1795.28,1110.24ZM1489.63,1169.28L1793.84,1169.28L1793.84,1112.96L1489.63,1112.96L1489.63,1169.28Z" style="fill:rgb(68,68,68);"/>
        </g>
        <g transform="matrix(1.33344,0,0,0.712133,-1093.51,811.63)">
            <ellipse cx="1653.54" cy="916.874" rx="118.11" ry="98.874" style="fill:white;"/>
            <path d="M1653.54,818C1718.73,818 1771.65,862.304 1771.65,916.874C1771.65,971.444 1718.73,1015.75 1653.54,1015.75C1588.36,1015.75 1535.43,971.444 1535.43,916.874C1535.43,862.304 1588.36,818 1653.54,818ZM1653.54,823.851C1691.98,823.851 1726.1,839.369 1747.23,863.492C1760.43,878.57 1768.53,896.762 1768.53,916.874C1768.53,936.986 1760.43,955.178 1747.23,970.256C1726.1,994.379 1691.98,1009.9 1653.54,1009.9C1615.11,1009.9 1580.99,994.379 1559.86,970.256C1546.65,955.178 1538.56,936.986 1538.56,916.874C1538.56,896.762 1546.65,878.57 1559.86,863.492C1580.99,839.369 1615.11,823.851 1653.54,823.851Z" style="fill:rgb(68,68,68);"/>
        </g>
        <g transform="matrix(1.53571,0,0,1,-1480.57,512.854)">
            <g transform="matrix(1,0,0,1,-13,6.83071)">
                <rect x="1535.43" y="695" width="330.709" height="155.394" style="fill:white;"/>
                <path d="M1866.14,695L1535.43,695L1535.43,850.394L1866.14,850.394L1866.14,695ZM1538.15,699.167L1538.15,846.227L1863.43,846.227L1863.43,699.167L1538.15,699.167Z" style="fill:rgb(68,68,68);"/>
            </g>
            <g transform="matrix(0.864368,0,0,1,208.254,0)">
                <rect x="1535.43" y="708.661" width="47.244" height="141.732" style="fill:white;"/>
                <path d="M1582.68,708.661L1535.43,708.661L1535.43,850.394L1582.68,850.394L1582.68,708.661ZM1538.57,712.828L1538.57,846.227L1579.54,846.227L1579.54,712.828L1538.57,712.828Z" style="fill:rgb(68,68,68);"/>
            </g>
            <g transform="matrix(1,0,0,1,259.843,0)">
                <rect x="1535.43" y="708.661" width="47.244" height="141.732" style="fill:white;"/>
                <path d="M1582.68,708.661L1535.43,708.661L1535.43,850.394L1582.68,850.394L1582.68,708.661ZM1538.15,712.828L1538.15,846.227L1579.96,846.227L1579.96,712.828L1538.15,712.828Z" style="fill:rgb(68,68,68);"/>
            </g>
            <g transform="matrix(1.74057,0,0,1,-1250.3,0)">
                <rect x="1593" y="708.661" width="190" height="47.244" style="fill:white;"/>
                <path d="M1783,708.661L1593,708.661L1593,755.906L1783,755.906L1783,708.661ZM1594.56,712.828L1594.56,751.739L1781.44,751.739L1781.44,712.828L1594.56,712.828Z" style="fill:rgb(68,68,68);"/>
            </g>
        </g>
        <g transform="matrix(1.53571,0,0,1,-1480.57,512.854)">
            <g transform="matrix(1,0,0,1,-13,6.83071)">
                <rect x="1535.43" y="695" width="330.709" height="155.394" style="fill:white;"/>
                <path d="M1866.14,695L1535.43,695L1535.43,850.394L1866.14,850.394L1866.14,695ZM1538.15,699.167L1538.15,846.227L1863.43,846.227L1863.43,699.167L1538.15,699.167Z" style="fill:rgb(68,68,68);"/>
            </g>
            <g transform="matrix(0.864368,0,0,1,208.254,0)">
                <rect x="1535.43" y="708.661" width="47.244" height="141.732" style="fill:white;"/>
                <path d="M1582.68,708.661L1535.43,708.661L1535.43,850.394L1582.68,850.394L1582.68,708.661ZM1538.57,712.828L1538.57,846.227L1579.54,846.227L1579.54,712.828L1538.57,712.828Z" style="fill:rgb(68,68,68);"/>
            </g>
            <g transform="matrix(1,0,0,1,259.843,0)">
                <rect x="1535.43" y="708.661" width="47.244" height="141.732" style="fill:white;"/>
                <path d="M1582.68,708.661L1535.43,708.661L1535.43,850.394L1582.68,850.394L1582.68,708.661ZM1538.15,712.828L1538.15,846.227L1579.96,846.227L1579.96,712.828L1538.15,712.828Z" style="fill:rgb(68,68,68);"/>
            </g>
            <g transform="matrix(1.74057,0,0,1,-1250.3,0)">
                <rect x="1593" y="708.661" width="190" height="47.244" style="fill:white;"/>
                <path d="M1783,708.661L1593,708.661L1593,755.906L1783,755.906L1783,708.661ZM1594.56,712.828L1594.56,751.739L1781.44,751.739L1781.44,712.828L1594.56,712.828Z" style="fill:rgb(68,68,68);"/>
            </g>
        </g>
        <g id="Grundriss" transform="matrix(1,0,0,1.08588,-11.811,-150.124)">
            <g transform="matrix(6.12323e-17,1,-1,6.12323e-17,3745.55,-234.763)">
                <g transform="matrix(0.818182,0,0,1,107.373,0)">
                    <path d="M590.551,1779.28L885.567,1779.28L885.567,1716.78L555.378,1716.78L555.378,1779.28L590.551,1779.28Z" style="fill:rgb(182,102,102);"/>
                </g>
                <g transform="matrix(0.461538,0,0,1,559.661,0)">
                    <path d="M1039.37,1779.28L1715.9,1779.28L1715.9,1716.78L977.017,1716.78L977.017,1779.28L1039.37,1779.28Z" style="fill:rgb(182,102,102);"/>
                </g>
                <g transform="matrix(0.728955,0,0,1.27778,209.976,-485.564)">
                    <path d="M2471.48,1723.58L1519.58,1723.58L1519.58,1772.49L2471.48,1772.49L2471.48,1723.58Z" style="fill:rgb(182,102,102);"/>
                </g>
            </g>
            <g transform="matrix(-6.12323e-17,-1,1,-6.12323e-17,-1216.82,2338.58)">
                <g transform="matrix(0.818182,0,0,1,107.373,-46.9591)">
                    <path d="M555.378,1779.28L885.567,1779.28L885.567,1716.78L555.378,1716.78L555.378,1779.28Z" style="fill:rgb(182,102,102);"/>
                </g>
                <g transform="matrix(0.461538,0,0,1,559.661,-46.9591)">
                    <path d="M977.017,1779.28L1715.9,1779.28L1715.9,1716.78L977.017,1716.78L977.017,1779.28Z" style="fill:rgb(182,102,102);"/>
                </g>
                <g transform="matrix(0.728955,0,0,1.27778,209.976,-532.523)">
                    <path d="M2471.48,1723.58L1519.58,1723.58L1519.58,1772.49L2471.48,1772.49L2471.48,1723.58Z" style="fill:rgb(182,102,102);"/>
                </g>
            </g>
            <g transform="matrix(-1.08588,-4.84283e-18,-5.25874e-18,-0.920911,2637.33,3314.57)">
                <g transform="matrix(0.818182,0,0,1,107.373,-46.9591)">
                    <path d="M555.378,1779.28L885.567,1779.28L885.567,1716.78L555.378,1716.78L555.378,1779.28Z" style="fill:rgb(182,102,102);"/>
                </g>
                <g transform="matrix(0.461538,0,0,1,559.661,-46.9591)">
                    <path d="M977.017,1779.28L1715.9,1779.28L1715.9,1716.78L977.017,1716.78L977.017,1779.28Z" style="fill:rgb(182,102,102);"/>
                </g>
                <g transform="matrix(0.728955,0,0,1.27778,209.976,-532.523)">
                    <path d="M2471.48,1723.58L1519.58,1723.58L1519.58,1772.49L2471.48,1772.49L2471.48,1723.58Z" style="fill:rgb(182,102,102);"/>
                </g>
            </g>
            <g transform="matrix(1.08588,4.84283e-18,5.25874e-18,0.920911,-157.017,-1210.75)">
                <g transform="matrix(0.818182,0,0,1,107.373,-46.9591)">
                    <path d="M555.378,1779.28L885.567,1779.28L885.567,1716.78L555.378,1716.78L555.378,1779.28Z" style="fill:rgb(182,102,102);"/>
                </g>
                <g transform="matrix(0.461538,0,0,1,559.661,-46.9591)">
                    <path d="M977.017,1779.28L1715.9,1779.28L1715.9,1716.78L977.017,1716.78L977.017,1779.28Z" style="fill:rgb(182,102,102);"/>
                </g>
                <g transform="matrix(0.728955,0,0,1.27778,209.976,-532.523)">
                    <path d="M2471.48,1723.58L1519.58,1723.58L1519.58,1772.49L2471.48,1772.49L2471.48,1723.58Z" style="fill:rgb(182,102,102);"/>
                </g>
            </g>
        </g>
    </g>
</svg>
