<?xml version="1.0" encoding="UTF-8" standalone="no"?>
<!DOCTYPE svg PUBLIC "-//W3C//DTD SVG 1.1//EN" "http://www.w3.org/Graphics/SVG/1.1/DTD/svg11.dtd">
<svg width="100%" height="100%" viewBox="0 0 524 283" version="1.1" xmlns="http://www.w3.org/2000/svg" xmlns:xlink="http://www.w3.org/1999/xlink" xml:space="preserve" xmlns:serif="http://www.serif.com/" style="fill-rule:evenodd;clip-rule:evenodd;stroke-linecap:round;stroke-linejoin:round;stroke-miterlimit:1.5;">
    <g transform="matrix(1,0,0,1,6,-114)">
        <g id="Layer1">
            <g transform="matrix(-5.12486e-17,-0.836953,1.45908,-8.93427e-17,-50.406,314.883)">
                <path d="M60,344.332L2.847,344.332L2.847,216.584C2.847,212.95 7.991,210 14.326,210L48.521,210C54.857,210 60,212.95 60,216.584L60,344.332Z" style="fill:none;stroke:rgb(207,94,94);stroke-width:10.09px;"/>
            </g>
            <g transform="matrix(5.12486e-17,0.836953,-1.45163,8.88868e-17,559.843,262.283)">
                <path d="M60,344.332L2.847,344.332L2.847,216.584C2.847,212.95 7.991,210 14.326,210L48.521,210C54.857,210 60,212.95 60,216.584L60,344.332Z" style="fill:none;stroke:rgb(207,94,94);stroke-width:10.13px;"/>
            </g>
            <g transform="matrix(0.933014,0,0,1,16.6148,0)">
                <path d="M46.5,358L464.5,358" style="fill:none;stroke:rgb(207,94,94);stroke-width:12.41px;"/>
            </g>
            <g transform="matrix(0.997602,0,0,1,0.613909,0)">
                <path d="M452,264.054C450.555,264.453 449.033,264.666 447.462,264.666L273.038,264.666C263.635,264.666 256,257.031 256,247.628L256,137.038C256,127.635 263.635,120 273.038,120L447.462,120C456.865,120 464.5,127.635 464.5,137.038L464.5,207L464.051,207C457.4,207 452,212.4 452,219.051L452,264.054Z" style="fill:none;stroke:rgb(207,94,94);stroke-width:12.01px;"/>
            </g>
            <g transform="matrix(-0.993048,0,0,1,509.22,0)">
                <path d="M452,264.054C450.555,264.453 449.033,264.666 447.462,264.666L273.038,264.666C263.635,264.666 256,257.031 256,247.628L256,137.038C256,127.635 263.635,120 273.038,120L447.462,120C456.865,120 464.5,127.635 464.5,137.038L464.5,207L464.051,207C457.4,207 452,212.4 452,219.051L452,264.054Z" style="fill:none;stroke:rgb(207,94,94);stroke-width:12.04px;"/>
            </g>
            <g transform="matrix(1.04982,0,0,1.04982,449.011,-13.1997)">
                <path d="M2.847,342.125L2.847,221.459C2.847,215.134 7.991,210 14.326,210L48.521,210C54.857,210 60,215.134 60,221.459L60,342.125C60,348.45 54.857,353.584 48.521,353.584L14.326,353.584C7.991,353.584 2.847,348.45 2.847,342.125Z" style="fill:none;stroke:rgb(207,94,94);stroke-width:11.43px;"/>
            </g>
            <g transform="matrix(1.04982,0,0,1.04982,-2.98922,-13.1997)">
                <path d="M2.847,342.125L2.847,221.459C2.847,215.134 7.991,210 14.326,210L48.521,210C54.857,210 60,215.134 60,221.459L60,342.125C60,348.45 54.857,353.584 48.521,353.584L14.326,353.584C7.991,353.584 2.847,348.45 2.847,342.125Z" style="fill:none;stroke:rgb(207,94,94);stroke-width:11.43px;"/>
            </g>
            <g transform="matrix(1.04982,0,0,1.05165,387.011,19.1537)">
                <path d="M60,322.205L60,347.635C60,350.918 57.33,353.584 54.041,353.584L8.807,353.584C5.518,353.584 2.847,350.918 2.847,347.635L2.847,322.205L60,322.205Z" style="fill:none;stroke:rgb(207,94,94);stroke-width:11.42px;"/>
            </g>
            <g transform="matrix(1.04982,0,0,1.05165,57.0108,19.1537)">
                <path d="M60,322.205L60,347.635C60,350.918 57.33,353.584 54.041,353.584L8.807,353.584C5.518,353.584 2.847,350.918 2.847,347.635L2.847,322.205L60,322.205Z" style="fill:none;stroke:rgb(207,94,94);stroke-width:11.42px;"/>
            </g>
        </g>
    </g>
</svg>
